<svg width="99" height="17" viewBox="0 0 99 17" fill="none" xmlns="http://www.w3.org/2000/svg">
<path d="M8.5293 12.5469C8.5293 12.1816 8.48633 11.8594 8.40039 11.5801C8.31445 11.2936 8.16406 11.0358 7.94922 10.8066C7.73438 10.5775 7.43359 10.359 7.04688 10.1514C6.66016 9.94368 6.1696 9.73242 5.5752 9.51758C4.93066 9.28841 4.34701 9.03418 3.82422 8.75488C3.30143 8.46842 2.85384 8.14258 2.48145 7.77734C2.11621 7.41211 1.83333 6.99316 1.63281 6.52051C1.43229 6.04785 1.33203 5.50716 1.33203 4.89844C1.33203 4.28971 1.43587 3.72754 1.64355 3.21191C1.8584 2.69629 2.15918 2.2487 2.5459 1.86914C2.93978 1.48242 3.41243 1.18164 3.96387 0.966797C4.5153 0.751953 5.13118 0.644531 5.81152 0.644531C6.82845 0.644531 7.68424 0.870117 8.37891 1.32129C9.08073 1.7653 9.61068 2.34896 9.96875 3.07227C10.3268 3.78841 10.5059 4.55469 10.5059 5.37109H8.5293C8.5293 4.78385 8.43262 4.26465 8.23926 3.81348C8.05306 3.35514 7.75944 2.99707 7.3584 2.73926C6.96452 2.47428 6.44889 2.3418 5.81152 2.3418C5.23861 2.3418 4.76595 2.4528 4.39355 2.6748C4.02832 2.89681 3.75618 3.19759 3.57715 3.57715C3.40527 3.95671 3.31934 4.38997 3.31934 4.87695C3.31934 5.20638 3.37663 5.50716 3.49121 5.7793C3.60579 6.04427 3.78125 6.29134 4.01758 6.52051C4.26107 6.74967 4.56185 6.96094 4.91992 7.1543C5.28516 7.34766 5.71484 7.53385 6.20898 7.71289C6.97526 7.96354 7.63053 8.24284 8.1748 8.55078C8.71908 8.85872 9.16309 9.20605 9.50684 9.59277C9.85059 9.97233 10.1012 10.4056 10.2588 10.8926C10.4235 11.3724 10.5059 11.9167 10.5059 12.5254C10.5059 13.1628 10.3984 13.7393 10.1836 14.2549C9.97591 14.7705 9.67155 15.2109 9.27051 15.5762C8.86947 15.9414 8.38607 16.2243 7.82031 16.4248C7.25456 16.6182 6.61719 16.7148 5.9082 16.7148C5.29232 16.7148 4.68717 16.6146 4.09277 16.4141C3.50553 16.2135 2.97201 15.9128 2.49219 15.5117C2.01237 15.1107 1.62923 14.6165 1.34277 14.0293C1.05632 13.4349 0.913086 12.7474 0.913086 11.9668H2.88965C2.88965 12.5039 2.96842 12.9658 3.12598 13.3525C3.28353 13.7321 3.50195 14.0472 3.78125 14.2979C4.06055 14.5485 4.37923 14.7347 4.7373 14.8564C5.10254 14.971 5.49284 15.0283 5.9082 15.0283C6.48112 15.0283 6.96094 14.9281 7.34766 14.7275C7.74154 14.527 8.03516 14.2406 8.22852 13.8682C8.42904 13.4958 8.5293 13.0553 8.5293 12.5469ZM20.4531 0.859375H22.4297V11.8701C22.4297 13.0446 22.2041 13.9863 21.7529 14.6953C21.3018 15.4043 20.7074 15.9199 19.9697 16.2422C19.2393 16.5573 18.4515 16.7148 17.6064 16.7148C16.7041 16.7148 15.8913 16.5573 15.168 16.2422C14.4447 15.9199 13.8682 15.4043 13.4385 14.6953C13.016 13.9863 12.8047 13.0446 12.8047 11.8701V0.859375H14.7705V11.8701C14.7705 12.6865 14.8851 13.3239 15.1143 13.7822C15.3506 14.2406 15.68 14.5628 16.1025 14.749C16.5322 14.9352 17.0335 15.0283 17.6064 15.0283C18.1865 15.0283 18.6878 14.9352 19.1104 14.749C19.54 14.5628 19.8695 14.2406 20.0986 13.7822C20.335 13.3239 20.4531 12.6865 20.4531 11.8701V0.859375ZM30.4326 10.3662H27.0166V8.67969H30.4326C31.0771 8.67969 31.5964 8.55078 31.9902 8.29297C32.3913 8.03516 32.6813 7.67708 32.8604 7.21875C33.0465 6.76042 33.1396 6.23763 33.1396 5.65039C33.1396 5.11328 33.0465 4.6084 32.8604 4.13574C32.6813 3.66309 32.3913 3.28353 31.9902 2.99707C31.5964 2.70345 31.0771 2.55664 30.4326 2.55664H27.4248V16.5H25.4482V0.859375H30.4326C31.4424 0.859375 32.2946 1.06348 32.9893 1.47168C33.6839 1.87988 34.2103 2.44564 34.5684 3.16895C34.9336 3.88509 35.1162 4.70508 35.1162 5.62891C35.1162 6.63151 34.9336 7.4873 34.5684 8.19629C34.2103 8.90527 33.6839 9.44596 32.9893 9.81836C32.2946 10.1836 31.4424 10.3662 30.4326 10.3662ZM46.0625 14.8135V16.5H39.2734V14.8135H46.0625ZM39.6279 0.859375V16.5H37.6514V0.859375H39.6279ZM45.1494 7.58398V9.27051H39.2734V7.58398H45.1494ZM45.9551 0.859375V2.55664H39.2734V0.859375H45.9551ZM48.5977 0.859375H52.9697C53.9867 0.859375 54.8389 1.03841 55.5264 1.39648C56.221 1.75456 56.7438 2.28451 57.0947 2.98633C57.4528 3.68099 57.6318 4.53678 57.6318 5.55371C57.6318 6.26986 57.5137 6.92513 57.2773 7.51953C57.041 8.10677 56.6973 8.60807 56.2461 9.02344C55.7949 9.43164 55.2471 9.736 54.6025 9.93652L54.0654 10.1621H50.166L50.1445 8.47559H52.9482C53.5498 8.47559 54.0511 8.34668 54.4521 8.08887C54.8532 7.82389 55.154 7.4694 55.3545 7.02539C55.555 6.58138 55.6553 6.09082 55.6553 5.55371C55.6553 4.95215 55.5658 4.42578 55.3867 3.97461C55.2077 3.52344 54.9212 3.17611 54.5273 2.93262C54.1406 2.68197 53.6214 2.55664 52.9697 2.55664H50.5742V16.5H48.5977V0.859375ZM56.1064 16.5L52.9912 9.41016L55.043 9.39941L58.2227 16.3711V16.5H56.1064ZM70.0713 8.71191V14.5449C69.8994 14.7741 69.638 15.0605 69.2871 15.4043C68.9434 15.748 68.46 16.0524 67.8369 16.3174C67.2139 16.5824 66.3975 16.7148 65.3877 16.7148C64.5785 16.7148 63.8372 16.5788 63.1641 16.3066C62.498 16.0345 61.9215 15.6263 61.4346 15.082C60.9548 14.5306 60.5824 13.8467 60.3174 13.0303C60.0524 12.2067 59.9199 11.2435 59.9199 10.1406V7.20801C59.9199 6.1123 60.0309 5.15267 60.2529 4.3291C60.4749 3.50553 60.8044 2.82161 61.2412 2.27734C61.6852 1.73307 62.2331 1.32487 62.8848 1.05273C63.5436 0.780599 64.3099 0.644531 65.1836 0.644531C66.1934 0.644531 67.0527 0.83431 67.7617 1.21387C68.4707 1.59342 69.0186 2.14128 69.4053 2.85742C69.7992 3.57357 70.0212 4.43294 70.0713 5.43555H68.0947C68.0446 4.79102 67.9085 4.23958 67.6865 3.78125C67.4645 3.31576 67.1494 2.96126 66.7412 2.71777C66.333 2.46712 65.8138 2.3418 65.1836 2.3418C64.582 2.3418 64.0736 2.44206 63.6582 2.64258C63.2428 2.8431 62.9027 3.14388 62.6377 3.54492C62.3799 3.94596 62.1901 4.45085 62.0684 5.05957C61.9538 5.66829 61.8965 6.37728 61.8965 7.18652V10.1406C61.8965 10.9714 61.9788 11.6947 62.1436 12.3105C62.3083 12.9264 62.541 13.4349 62.8418 13.8359C63.1497 14.237 63.5186 14.5378 63.9482 14.7383C64.3779 14.9316 64.8613 15.0283 65.3984 15.0283C66.0072 15.0283 66.487 14.9639 66.8379 14.835C67.1888 14.7061 67.4574 14.5592 67.6436 14.3945C67.8369 14.2298 67.9909 14.0973 68.1055 13.9971V10.3877H65.2373V8.71191H70.0713ZM74.1533 0.859375L77.3438 8.71191L80.5449 0.859375H82.7793L78.332 10.6562V16.5H76.3555V10.6562L71.9082 0.859375H74.1533ZM85.4541 0.859375H87.3662L91.459 13.6104L95.541 0.859375H97.4531L92.2002 16.5H90.6963L85.4541 0.859375ZM84.8311 0.859375H86.5068L86.7969 10.3984V16.5H84.8311V0.859375ZM96.3896 0.859375H98.0654V16.5H96.0996V10.3984L96.3896 0.859375Z" fill="white"/>
</svg>
